<svg id="total-image" xmlns="http://www.w3.org/2000/svg" viewBox="0 0 450.79 526.43">
  <title>cycle</title>
  <g id="man-on-bike">
    <g id="man-on-bike-2" data-name="man-on-bike">
      <path d="M352.12,329.71a6.43,6.43,0,0,0-3.74,3.29l-5.13,10.44-1.38,2.79a6.51,6.51,0,0,0,3,8.71l39.8,19.58,70.58,34.71a6.51,6.51,0,0,0,8.48-2.54l.23-.41,3.93-8,2.58-5.25a6.74,6.74,0,0,0,.49-1.32,6.54,6.54,0,0,0-.17-3.64,6.4,6.4,0,0,0-3.29-3.74l-8.41-4.14L396.8,349.57,357.08,330A6.47,6.47,0,0,0,352.12,329.71Z" transform="translate(-153.15 -135.07)" style="fill: #6c63ff"/>
      <path d="M339.8,333.58a18.25,18.25,0,0,0-1.88,3.3,18.54,18.54,0,0,0,9.45,24.4L378.48,375a6.53,6.53,0,0,0,6.15-.49,6.29,6.29,0,0,0,1.85-1.82,6.7,6.7,0,0,0,.57-1l9.69-22a.44.44,0,0,0,.06-.16,6.49,6.49,0,0,0-3.38-8.41l-31.1-13.73A18.54,18.54,0,0,0,339.8,333.58Z" transform="translate(-153.15 -135.07)" style="fill: #2f2e41"/>
      <path d="M425.07,433.46H410.31a6.5,6.5,0,0,0-6.5,6.5v92a6.5,6.5,0,0,0,6.5,6.5h14.76a6.5,6.5,0,0,0,6.5-6.5h0V440a6.5,6.5,0,0,0-6.5-6.5Z" transform="translate(-153.15 -135.07)" style="fill: #6c63ff"/>
      <path d="M416,466.83a8.66,8.66,0,0,1-3.14-.59L330.6,434.07a8.93,8.93,0,0,1-4.93-11.6l7-18a9,9,0,0,1,4.72-5,8.69,8.69,0,0,1,6.77-.18l82.22,32.16a8.67,8.67,0,0,1,4.84,4.74,9.05,9.05,0,0,1,.09,6.86l-7,18A9,9,0,0,1,416,466.83Z" transform="translate(-153.15 -135.07)" style="fill: #ccc"/>
      <path d="M425.5,544.22h-16a5.5,5.5,0,0,1,0-11h16a5.5,5.5,0,0,1,0,11Z" transform="translate(-153.15 -135.07)" style="fill: #2f2e41"/>
      <path d="M299.62,444.53a26.13,26.13,0,0,1-6-.63c-8.88-2-12.16-5.94-12.69-7.92a1.74,1.74,0,0,1,.32-1.81,1.54,1.54,0,0,1,1.64-.23c2.76.92,41.85-6.81,55.73-10,5.77-1.33,9.82-1.12,12,.65a3.91,3.91,0,0,1,1.57,2.83v.35L325,437.87C324.06,438.31,311.34,444.53,299.62,444.53Z" transform="translate(-153.15 -135.07)" style="fill: #2f2e41"/>
      <path d="M513.43,565a1,1,0,0,1-.92-.6L461,447.27a3,3,0,0,0-2.81-1.79l-140.93,2.88a3,3,0,0,0-2.5,1.43L247.13,560.4a1,1,0,0,1-1.37.33,1,1,0,0,1-.34-1.38l67.64-110.6a5,5,0,0,1,4.17-2.39l140.93-2.88a5,5,0,0,1,4.68,3l51.5,117.16a1,1,0,0,1-.51,1.31.93.93,0,0,1-.4.09Z" transform="translate(-153.15 -135.07)" style="fill: #565656"/>
      <path d="M350.25,569.22a1,1,0,0,1-1-.72l-32.6-113.43a1,1,0,0,1,1.92-.55l32.6,113.42a1,1,0,0,1-.68,1.24h0A.9.9,0,0,1,350.25,569.22Z" transform="translate(-153.15 -135.07)" style="fill: #5b5b5b"/>
      <path d="M357.25,437.72h-32a22.53,22.53,0,0,1-22.5-22.5v-5a22.52,22.52,0,0,1,22.5-22.5h32a22.52,22.52,0,0,1,22.5,22.5v5A22.53,22.53,0,0,1,357.25,437.72Z" transform="translate(-153.15 -135.07)" style="fill: #ccc"/>
      <path d="M453.42,401.25a3.5,3.5,0,0,1-1.17-6.8l30.17-10.67a3.5,3.5,0,1,1,2.33,6.6l-30.17,10.67A3.49,3.49,0,0,1,453.42,401.25Z" transform="translate(-153.15 -135.07)" style="fill: #606060"/>
      <path d="M374.4,568.41a1,1,0,0,1-1-1,1,1,0,0,1,.28-.69L464.09,473a1,1,0,1,1,1.44,1.38h0l-90.41,93.7A1,1,0,0,1,374.4,568.41Z" transform="translate(-153.15 -135.07)" style="fill: #777"/>
      <path d="M255.73,580.46a1,1,0,1,1,0-2l83.53-.24h0a1,1,0,0,1,0,2l-83.52.24Z" transform="translate(-153.15 -135.07)" style="fill: #4c4c4c"/>
      <path d="M459.44,437a1,1,0,0,1-1-.79l-4.67-21.84a1,1,0,0,1,.77-1.19.71.71,0,0,1,.21,0h15.86V402.41a1,1,0,1,1,2,0v11.73a1,1,0,0,1-1,1H456l4.42,20.63a1,1,0,0,1-.77,1.19l-.21,0Z" transform="translate(-153.15 -135.07)" style="fill: #565656"/>
      <path d="M357.25,606.22a20,20,0,1,1,20-20A20,20,0,0,1,357.25,606.22Zm0-38a18,18,0,1,0,18,18h0A18,18,0,0,0,357.25,568.22Z" transform="translate(-153.15 -135.07)" style="fill: #4f4f4f"/>
      <path d="M376.5,591.22h-16a5.5,5.5,0,0,1,0-11h16a5.5,5.5,0,0,1,0,11Z" transform="translate(-153.15 -135.07)" style="fill: #2f2e41"/>
      <path d="M366.2,302.55a6.44,6.44,0,0,0-4.39,2.36l-7.38,9-2,2.4a6.51,6.51,0,0,0,.89,9.15l34.31,28.13,60.83,49.86a6.51,6.51,0,0,0,8.84-.55c.11-.11.21-.23.31-.35l5.65-6.89,3.71-4.52a6.5,6.5,0,0,0-.91-9.15L458.84,376l-53.65-44L371,304A6.52,6.52,0,0,0,366.2,302.55Z" transform="translate(-153.15 -135.07)" style="fill: #6c63ff"/>
      <g id="face">
        <g id="face-2" data-name="face">
          <circle cx="191.16" cy="77.05" r="53.52" style="fill: #6c63ff"/>
          <path d="M389.51,235.78l-.06-2c3.72-.1,7-.33,9.47-2.13a6.17,6.17,0,0,0,2.38-4.53,3.54,3.54,0,0,0-1.15-2.9c-1.64-1.38-4.27-.93-6.19-.05l-1.66.76,3.18-23.19,2,.27-2.7,19.73c2.61-.77,5-.44,6.68,1a5.47,5.47,0,0,1,1.86,4.49,8.12,8.12,0,0,1-3.2,6.07C396.93,235.58,392.82,235.69,389.51,235.78Z" transform="translate(-153.15 -135.07)" style="fill: #2f2e41"/>
        </g>
        <rect x="220.11" y="68.64" width="10.77" height="2" style="fill: #2f2e41"/>
      </g>
      <path d="M403.26,328.26l-23.87-24.21A18.5,18.5,0,1,0,353,330l23.86,24.22a6.5,6.5,0,0,0,8.18.88,5.68,5.68,0,0,0,1-.81l17.09-16.84a6.38,6.38,0,0,0,1.42-2.07A6.56,6.56,0,0,0,403.26,328.26Z" transform="translate(-153.15 -135.07)" style="fill: #2f2e41"/>
      <path d="M376.07,477.46H361.31a6.5,6.5,0,0,0-6.5,6.5v92a6.5,6.5,0,0,0,6.5,6.5h14.76a6.5,6.5,0,0,0,6.5-6.5h0V484a6.5,6.5,0,0,0-6.5-6.5Z" transform="translate(-153.15 -135.07)" style="fill: #6c63ff"/>
      <path d="M353.82,509.11c-4.72,0-8.8-2.92-9.52-7.14l-15-87a8.22,8.22,0,0,1,1.91-6.67,10.91,10.91,0,0,1,6.61-3.74l21.6-3.71c5.52-.95,10.68,2.17,11.51,7l15,87a8.21,8.21,0,0,1-1.9,6.67,10.88,10.88,0,0,1-6.61,3.73l-21.61,3.72A11.85,11.85,0,0,1,353.82,509.11Z" transform="translate(-153.15 -135.07)" style="fill: #ccc"/>
      <path d="M375.76,291.88a38.53,38.53,0,0,0-8.78-7.42,44.86,44.86,0,0,0-46.88.2,39.12,39.12,0,0,0-7.63,6.31,33.23,33.23,0,0,0-9.3,22.79V410a4.3,4.3,0,0,0,.08.88c.47,3,3.4,5.31,6.92,5.31h67.07c3.85,0,7-2.78,7-6.19V313.76A33,33,0,0,0,375.76,291.88Z" transform="translate(-153.15 -135.07)" style="fill: #2f2e41"/>
    </g>
    <path id="hat" d="M402.27,170.17c-8.19-1.93-7.66-5.84-8.42-10.36-.88-6-3.86-11.94-8.7-17.42a18.92,18.92,0,0,0-5.68-4.5,31.78,31.78,0,0,0-10.22-2.48C357.06,134,316.6,137,308.48,145.87a25.84,25.84,0,0,0-6.41,11.3c-.34,1.48-2.33,11.83-2.77,15.18-.2,1.5-.37,2.93-.5,4.28-.61,6.09-.54,10.4.28,10.89,5.14,3,11.64,6.27,14.86,6,5.23-.42,9.88-1.81,14.94-2.53,14.25-2.06,30.34,1.24,45.23,4.92,7.4,1.83,15.81,3.76,22.14,1.8,4.55-1.4,6.86-4.52,11.07-6.23,8.09-3.29,22.58-1.27,26.5-6.81C442.14,173,411.57,172.41,402.27,170.17Z" transform="translate(-153.15 -135.07)" style="fill: #2f2e41"/>
  </g>
  <g id="front-wheel">
    <circle cx="365.62" cy="440.99" r="6" style="fill: #2f2e41"/>
    <g>
      <path d="M523,649.53l-4.5-70.36-.1-.15-4.54,1.58-20.91,61L459.74,618l53-38.38,0-.16.3-.1,3.41-2.48L461,545.73l-13.61,14.95,2.16,14,63.82,1.14v1.44l-65-1.17-2.44-15.89,18.61-20.45,27.82-32.46.5,1.34,5.89-6.46,21.95,3.93v-.87l1.44,0v1.09l32.6,5.83L524.25,573l-4.44,3.21V577l70.3-24.5-8.34,65.56-59.66-38L520,578.9l35.18,56.7Zm-2.88-67.8,4.21,65.68,28.78-12.5ZM462.24,618l30,21.3L511.93,582Zm59.17-40,1.5.84,57.75,36.8,7.76-61Zm-5.1-5.18,1.8,2.91.32-.23,2.15-67.94-21.37-3.83-5.87,6.47Zm-54.19-28.06,53.79,30.18-.93-1.53-22.7-62-26.74,29.38ZM522,507.8l-2.15,66.62,3.24-2.36,29.41-58.8Z" transform="translate(-153.15 -135.07)" style="fill: #535461"/>
      <path d="M519.37,492.29a84.59,84.59,0,1,0,77.57,50.95,84.89,84.89,0,0,0-77.57-50.95Zm-.29,148.12a63.86,63.86,0,0,1-26.52-121.95A62.53,62.53,0,0,1,503,514.75a63.85,63.85,0,1,1,16.07,125.66Z" transform="translate(-153.15 -135.07)" style="fill: #535461"/>
    </g>
  </g>
  <g id="back-wheel">
    <circle cx="84.06" cy="440.99" r="6" style="fill: #2f2e41"/>
    <g>
      <path d="M241.46,649.53,237,579.17l-.09-.15-4.54,1.58-20.91,61L178.18,618l53-38.38.05-.16.3-.1,3.42-2.48-55.52-31.13-13.6,14.95,2.16,14,63.82,1.14v1.44l-65-1.17-2.45-15.89,18.61-20.45,27.83-32.46.5,1.34,5.89-6.46,21.95,3.93v-.87l1.44,0v1.09l32.6,5.83L242.68,573l-4.43,3.21V577l70.3-24.5-8.35,65.56-59.65-38-2.1-1.18,35.18,56.7Zm-2.87-67.8,4.2,65.68,28.79-12.5ZM180.68,618l30,21.3L230.37,582Zm59.17-40,1.5.84,57.75,36.8,7.76-61Zm-5.11-5.18,1.81,2.91.31-.23L239,507.54l-21.38-3.83-5.86,6.47Zm-54.18-28.06,53.79,30.18-.94-1.53-22.69-62L184,540.77Zm59.92-36.94-2.16,66.62,3.25-2.36,29.4-58.8Z" transform="translate(-153.15 -135.07)" style="fill: #535461"/>
      <path d="M237.8,492.29a84.81,84.81,0,0,0-22.57,3,83.73,83.73,0,0,0-11.11,3.93,84.59,84.59,0,1,0,33.68-7Zm-.28,148.12A63.86,63.86,0,0,1,211,518.46a62.53,62.53,0,0,1,10.46-3.71,63.85,63.85,0,1,1,16.06,125.66Z" transform="translate(-153.15 -135.07)" style="fill: #535461"/>
    </g>
  </g>
</svg>
